<svg xmlns="http://www.w3.org/2000/svg" viewBox="0 0 64 64" id="filter"><path fill="#3363ad" d="M63.76 4.96c-.4-.79-1.2-1.28-2.08-1.28H2.32c-.87 0-1.68.49-2.07 1.28-.4.78-.32 1.72.21 2.42l18.73 25.17.02 25.45c0 .71.33 1.39.89 1.83.42.32.92.49 1.43.49.19 0 .38-.02.56-.06l20.94-5.2a2.3 2.3 0 0 0 1.76-2.24l.02-20.25L63.54 7.38c.52-.7.61-1.64.22-2.42zM40.15 50.99l-16.31 4.05-.02-20.93h16.34l-.01 16.88zm1.18-21.52H22.68L6.94 8.32h50.12L41.33 29.47z"></path><path fill="#e5e5e4" d="m40.17 34.11-.02 16.88-16.3 4.05-.02-20.93z"></path><path fill="#f6b64e" d="M57.06 8.32 41.33 29.47H22.68L6.94 8.32z"></path></svg>